<svg width="128" height="128" xmlns="http://www.w3.org/2000/svg" xmlns:xlink="http://www.w3.org/1999/xlink">
 <g>
  <title>background</title>
  <rect fill="none" id="canvas_background" height="402" width="582" y="-1" x="-1"/>
 </g>
 <g>
  <title>Layer 1</title>
  <rect id="svg_1" y="-351" x="-539.984" width="727.938" opacity="0" height="1520" fill="#333333"/>
  <circle id="svg_3" r="64" fill="#333333" cy="63.854414" cx="64.436758"/>
  <defs>
   <circle r="64" id="SVGID_61_" cy="64" cx="64"/>
  </defs>
  <clipPath id="SVGID_2_">
   <use id="svg_5" xlink:href="#SVGID_61_"/>
  </clipPath>
  <polygon id="svg_6" points="90.356,34.141 128,71.703 128,128 71.5,128 36.508,92.817    " fill="#000000" clip-path="url(#SVGID_2_)"/>
  <path id="svg_7" fill="#ffaa56" d="m67.5,128l-7,0l0,-34.579c0,-1.933 1.567,-3.5 3.5,-3.5l0,0c1.933,0 3.5,1.567 3.5,3.5l0,34.579z"/>
  <defs>
   <path id="SVGID_63_" d="m67.5,114.5l-7,0l0,-21.079c0,-1.933 1.567,-3.5 3.5,-3.5l0,0c1.933,0 3.5,1.567 3.5,3.5l0,21.079z"/>
  </defs>
  <clipPath id="SVGID_4_">
   <use id="svg_9" xlink:href="#SVGID_63_"/>
  </clipPath>
  <polygon id="svg_10" points="60.5,103.833 69,112.417 69,101.5    " fill="#F59D1D" clip-path="url(#SVGID_4_)"/>
  <circle id="svg_11" r="39.833" fill="#ff7f00" cy="64" cx="64"/>
  <defs>
   <circle r="39.833" id="SVGID_65_" cy="64" cx="64"/>
  </defs>
  <clipPath id="SVGID_6_">
   <use id="svg_13" xlink:href="#SVGID_65_"/>
  </clipPath>
  <path stroke="null" id="svg_15" fill="#ffffaa" d="m92.537416,82.532448c0,0 -0.390058,0.648897 -1.157898,1.822917c-0.411197,0.572728 -0.803982,1.325625 -1.528862,2.096831c-0.343005,0.39549 -0.709196,0.834191 -1.120393,1.286808c-0.412561,0.443828 -0.840124,0.97774 -1.342016,1.403258c-0.492345,0.454081 -1.02697,0.917684 -1.588189,1.415708c-0.283678,0.246815 -0.573494,0.500222 -0.870128,0.758755c-0.317774,0.223379 -0.642368,0.451152 -0.97378,0.684052c-0.674418,0.4658 -1.376794,0.949909 -2.105084,1.452328c-0.778069,0.414532 -1.584098,0.843712 -2.41672,1.28754c-0.424154,0.207999 -0.84217,0.476785 -1.298374,0.640108c-0.45484,0.176506 -0.916499,0.355941 -1.384295,0.537574c-0.941048,0.363265 -1.912782,0.759488 -2.948617,1.001909c-0.518258,0.131098 -1.042654,0.26366 -1.573869,0.39842c-0.532579,0.139886 -1.074704,0.273181 -1.63115,0.336899c-1.109482,0.155267 -2.254424,0.366195 -3.430734,0.432842c-4.705922,0.363265 -9.961471,-0.333237 -15.132461,-2.427138c-0.637594,-0.279773 -1.280644,-0.566137 -1.920965,-0.871543c-0.634866,-0.31566 -1.304511,-0.571996 -1.9121,-0.968219c-0.620546,-0.372054 -1.244502,-0.745572 -1.871867,-1.12202l-0.943094,-0.572728c-0.313683,-0.194083 -0.602134,-0.430645 -0.900815,-0.653291c-0.58986,-0.457743 -1.182447,-0.918416 -1.778444,-1.381286c-0.293907,-0.236562 -0.602134,-0.457011 -0.885131,-0.71115l-0.832623,-0.788051c-0.553718,-0.53025 -1.110164,-1.063429 -1.669337,-1.598073l-0.418016,-0.404279l-0.052508,-0.050535c0.158205,0.182365 -0.275495,-0.305406 -0.244809,-0.273181l-0.081148,-0.097408l-0.162297,-0.194083l-0.650551,-0.779262c-4.341777,-5.132584 -7.09673,-12.023635 -7.522247,-19.223754c-0.495755,-7.19133 1.500221,-14.632406 5.453987,-20.539857c0.514849,-0.720671 1.009922,-1.459652 1.554093,-2.150295l1.723891,-1.981845l0.108425,-0.123041l0.054554,-0.061521c0.10297,-0.106196 -0.154796,0.151605 0.245491,-0.254139l0.196393,-0.183097l0.392785,-0.366195c0.276177,-0.252674 0.492345,-0.468729 0.817621,-0.751431c0.402332,-0.326646 0.807392,-0.651094 1.219953,-0.96236l0.619864,-0.463602c0.206621,-0.150872 0.394149,-0.250477 0.592587,-0.376448c3.106822,-1.955479 6.613931,-3.140485 10.129223,-3.299414c3.509154,-0.185294 7.014899,0.52732 10.113539,2.065338c0.759658,0.418194 1.543182,0.776333 2.245559,1.28754l1.067203,0.72653c0.348461,0.25121 0.670326,0.541968 1.002421,0.812952c0.325275,0.281237 0.664871,0.541968 0.970371,0.84298l0.893996,0.923543l0.44052,0.463602l0.109107,0.115718c0.325275,0.365462 0.112517,0.130365 0.195711,0.224844l0.038869,0.050535l0.156159,0.203604l0.312319,0.405744l0.156159,0.202872c0.048416,0.061521 0.102288,0.131098 0.185482,0.255604c0.29868,0.434307 0.588496,0.875205 0.866719,1.318301c0.263903,0.436504 0.444611,0.831994 0.662825,1.250921c0.22026,0.406476 0.382556,0.843712 0.5544,1.272893c0.174571,0.428448 0.336868,0.859093 0.456204,1.305118c0.550309,1.75627 0.818985,3.582116 0.801937,5.374273c-0.018412,1.789959 -0.262539,3.552088 -0.771932,5.200696c-0.512121,1.645679 -1.234955,3.180034 -2.128951,4.549602c-0.480071,0.656221 -0.932183,1.330019 -1.485901,1.892494l-0.400968,0.43211l-0.200484,0.213858c0.097514,-0.098873 -0.189573,0.19628 -0.175253,0.177971l-0.042961,0.036619l-0.085922,0.073971l-0.341641,0.29442l-0.17048,0.146478l-0.272768,0.21459c-0.793754,0.62546 -1.475672,1.024613 -2.207371,1.368103c-0.731017,0.342758 -1.485219,0.605686 -2.246241,0.770474c-3.047495,0.703094 -6.137952,-0.026366 -8.465341,-1.662524c-0.589178,-0.397687 -1.122438,-0.867149 -1.612056,-1.360047l-0.35528,-0.381575l-0.174571,-0.190421l-0.174571,-0.197013l-0.058645,-0.07983c-0.161615,-0.225576 -0.279587,-0.362533 -0.557128,-0.79391c-0.114562,-0.1809 -0.241399,-0.373519 -0.334822,-0.547095l-0.249582,-0.506081c-0.169798,-0.333237 -0.280951,-0.694305 -0.411879,-1.037796c-0.212077,-0.709685 -0.374373,-1.423765 -0.420744,-2.139309c-0.257765,-2.86291 0.887176,-5.546384 2.575608,-7.136401c0.368918,-0.344223 0.289816,-0.262928 0.676464,-0.563207c0.302772,-0.233632 0.569402,-0.37718 0.832623,-0.517067c0.542807,-0.26366 1.103345,-0.443096 1.661836,-0.528053c1.118347,-0.163323 2.208053,0.022704 3.131371,0.467264c0.926728,0.429913 1.683658,1.136668 2.198506,1.887367c0.082512,0.125971 0.164342,0.255604 0.236626,0.381575l0.16707,0.347153c0.097514,0.235829 0.184118,0.472391 0.241399,0.71408c0.1207,0.480447 0.165024,0.963824 0.135702,1.42523c-0.065464,0.924275 -0.392785,1.746748 -0.853762,2.364153c-0.117972,0.152337 -0.235262,0.298815 -0.36619,0.425518l-0.095469,0.096675l-0.081148,0.080563l-0.038869,0.03076l-0.18139,0.140619c-0.367554,0.275378 -0.659416,0.392561 -1.003785,0.483377c-0.664189,0.159661 -1.297692,0.058591 -1.795492,-0.188956c-0.505302,-0.250477 -0.864673,-0.604221 -1.114937,-1.010697c-0.51894,-0.92574 -0.275495,-1.731368 -0.069556,-2.134182c0.108425,-0.212393 0.224351,-0.345688 0.300726,-0.431377c0.081148,-0.080563 0.122063,-0.121577 0.122063,-0.121577l0.576221,0.618869c0.007501,0.00293 -0.092741,0.104732 -0.151386,0.344955c-0.066828,0.218984 -0.038869,0.651094 0.224351,0.89498c0.295271,0.322251 0.904224,0.513405 1.399297,0.236562c0.108425,-0.052732 0.259129,-0.182365 0.291179,-0.241688l0.109107,-0.128168l0.032732,-0.038817c0.01432,-0.014648 -0.058645,0.057126 -0.023867,0.019775l0.008865,-0.014648l0.036142,-0.059324c0.052508,-0.075436 0.090695,-0.161126 0.13161,-0.244618c0.15275,-0.340561 0.207303,-0.737516 0.151386,-1.121288c-0.03546,-0.191154 -0.089331,-0.37718 -0.171162,-0.54856c-0.038187,-0.087154 -0.091377,-0.16552 -0.141157,-0.243153l-0.08524,-0.110591c-0.023867,-0.019042 -0.042961,-0.032958 -0.059327,-0.052732c-0.347097,-0.345688 -0.750111,-0.585911 -1.204269,-0.689178c-0.902861,-0.231435 -1.923011,0.141351 -2.445361,0.966754c-0.679873,0.980669 -0.992192,2.282857 -0.667599,3.484708c0.062737,0.299547 0.193665,0.577855 0.317092,0.847374c0.087286,0.123041 0.139111,0.262928 0.236626,0.37718l0.127519,0.179435c0.039551,0.050535 0.070238,0.065915 0.09956,0.103267c0.000682,0.01538 0.237308,0.261463 0.410515,0.440166l0.068192,0.071042c0.032732,0.036619 -0.154796,-0.180168 -0.062737,-0.079098l0.026595,0.020507l0.107061,0.08276l0.210713,0.16845c0.288452,0.210928 0.58645,0.407941 0.908316,0.552954c1.264278,0.618137 2.774046,0.689911 4.088104,0.182365c0.329367,-0.120112 0.642368,-0.288561 0.936275,-0.483377c0.297317,-0.187492 0.593269,-0.453349 0.717379,-0.588109c0.025231,-0.024169 0.03546,-0.026366 0.075011,-0.065915l0.15275,-0.167717l0.306863,-0.335434l0.077057,-0.084225l0.038187,-0.041746c0.042961,-0.043211 -0.220942,0.221182 -0.098878,0.093013l0.094105,-0.136224l0.190255,-0.270252c0.276177,-0.340561 0.465751,-0.747037 0.696239,-1.117626c0.394149,-0.792445 0.681237,-1.642017 0.8599,-2.520884c0.175935,-0.881797 0.188892,-1.800213 0.105697,-2.695925c-0.075693,-0.898642 -0.289134,-1.784833 -0.641004,-2.59925c-0.069556,-0.211661 -0.172525,-0.407208 -0.278223,-0.601292c-0.102288,-0.194816 -0.186164,-0.399885 -0.319138,-0.575658c-0.119336,-0.171379 -0.23799,-0.394758 -0.345733,-0.528785c-0.105697,-0.117182 -0.201166,-0.238759 -0.28777,-0.368392c-0.008183,-0.021239 -0.062737,-0.081295 -0.125473,-0.148675l-0.171844,-0.186759l-0.344369,-0.374983l-0.172525,-0.187492l-0.042961,-0.046873c0.054554,0.062985 -0.182754,-0.207266 0.111153,0.129633l-0.072965,-0.060788l-0.289816,-0.244618l-0.569402,-0.498025c-0.190255,-0.164788 -0.407787,-0.290026 -0.60759,-0.440166c-0.206621,-0.139886 -0.398923,-0.302477 -0.612363,-0.42918l-0.649869,-0.362533c-0.415289,-0.276111 -0.896041,-0.415265 -1.337925,-0.632784c-1.828906,-0.745572 -3.839203,-0.920613 -5.777217,-0.717741c-1.951652,0.203604 -3.810563,1.012162 -5.411708,2.154689c-0.095469,0.069577 -0.218896,0.137689 -0.291861,0.205069l-0.21685,0.197745c-0.145249,0.128901 -0.29868,0.246083 -0.45484,0.359603c-0.208667,0.190421 -0.493027,0.492166 -0.73579,0.733122l-0.379147,0.38304l-0.189573,0.191886c0.367554,-0.375716 0.083194,-0.07983 0.156159,-0.152337l-0.032732,0.042479l-0.066146,0.084957l-1.068567,1.33661c-0.332776,0.463602 -0.621228,0.960895 -0.941048,1.431821c-1.184493,1.956212 -2.035528,4.111633 -2.580381,6.340294c-0.10297,0.566137 -0.265266,1.117626 -0.336868,1.688157l-0.205939,1.708664l-0.048416,1.715988c-0.008865,0.570531 0.064782,1.138865 0.083194,1.705735c0.205258,2.259421 0.713969,4.459518 1.523407,6.492631c0.22026,0.499489 0.439156,0.997514 0.658052,1.494074c0.263221,0.470926 0.525078,0.940388 0.786934,1.407652c0.124791,0.258533 0.261857,0.415265 0.390058,0.604221l0.378465,0.558081l0.182754,0.283435c0.066828,0.099605 0.095469,0.175041 0.228443,0.320054l0.659416,0.777065l0.656688,0.773403l0.163661,0.192618l0.08183,0.096675c0.057281,0.065915 -0.347097,-0.392561 -0.158205,-0.181633l0.037506,0.036619l0.301408,0.29442c0.398923,0.394758 0.795799,0.787318 1.191312,1.178414l0.587814,0.591038c0.200484,0.189689 0.424835,0.345688 0.634866,0.519996c0.424835,0.342758 0.846943,0.684052 1.267005,1.02388c0.214123,0.164055 0.404378,0.36473 0.626683,0.51194l0.662825,0.446025c0.439156,0.301012 0.876266,0.600559 1.310648,0.897909c0.420744,0.32811 0.903542,0.522194 1.352245,0.781459c0.457568,0.240956 0.904906,0.498757 1.349517,0.758023c0.912407,0.462138 1.852774,0.82467 2.759726,1.249456c0.937638,0.321519 1.869822,0.632052 2.787002,0.964557c0.944458,0.229238 1.872549,0.454081 2.783593,0.674531c0.923318,0.16845 1.841181,0.28197 2.744723,0.432842c0.452112,0.087887 0.902179,0.054197 1.348154,0.094478c0.448703,0.031493 0.893314,0.062985 1.331788,0.093746c0.443247,0.051267 0.876948,0.035155 1.306557,0.012451c0.432337,-0.014648 0.8599,-0.029296 1.282007,-0.043943c0.857854,0.028563 1.674111,-0.09814 2.480821,-0.194816c0.804664,-0.102534 1.607283,-0.157464 2.354666,-0.347153c0.765113,-0.157464 1.505677,-0.310533 2.220328,-0.457743c0.706468,-0.212393 1.387023,-0.417462 2.041665,-0.614475c0.333458,-0.09814 0.659416,-0.194816 0.978554,-0.289294c0.309591,-0.122309 0.612363,-0.242421 0.908316,-0.359603c0.600771,-0.238759 1.173582,-0.4658 1.717072,-0.681854c0.574176,-0.190421 1.025606,-0.467264 1.497494,-0.692108c0.473252,-0.230703 0.917181,-0.446757 1.330424,-0.648165c0.846261,-0.36473 1.555457,-0.885459 2.134406,-1.220161c1.164717,-0.701629 1.805039,-1.053176 1.805039,-1.053176l0.546217,0.645235z"/>
  <circle id="svg_16" r="33.858" opacity="0.16" fill="#ffffaa" cy="64" cx="64"/>
 </g>
</svg>